<?xml version="1.0" encoding="iso-8859-1"?>
<!-- Uploaded to: SVG Repo, www.svgrepo.com, Generator: SVG Repo Mixer Tools -->
<svg height="800px" width="800px" version="1.1" id="Layer_1" xmlns="http://www.w3.org/2000/svg" xmlns:xlink="http://www.w3.org/1999/xlink" 
	 viewBox="0 0 512.001 512.001" xml:space="preserve">
<path style="fill:#A5EB78;" d="M362.741,61.779c2.12-0.191,4.283,0.567,5.809,2.092c1.529,1.529,2.297,3.66,2.092,5.812
	c-5.815,60.99-54.403,109.47-115.527,115.269c-0.23,0.021-0.46,0.035-0.687,0.035c-1.915,0-3.762-0.758-5.125-2.124
	c-1.529-1.529-2.297-3.66-2.092-5.812C253.026,116.055,301.612,67.577,362.741,61.779z"/>
<path style="fill:#8CD76E;" d="M255.114,184.952c-0.23,0.021-0.46,0.035-0.687,0.035c-1.915,0-3.762-0.758-5.125-2.124
	L368.393,63.773c0.045,0.043,0.111,0.054,0.157,0.098c1.529,1.529,2.297,3.66,2.092,5.812
	C364.826,130.674,316.239,179.154,255.114,184.952z"/>
<path style="fill:#A5EB78;" d="M125.058,35.324c-2.726-0.246-5.507,0.728-7.468,2.689c-1.966,1.966-2.954,4.706-2.689,7.473
	c7.477,78.416,69.947,140.748,148.535,148.203c0.296,0.028,0.592,0.045,0.883,0.045c2.462,0,4.837-0.974,6.591-2.73
	c1.966-1.966,2.954-4.706,2.689-7.473C266.121,105.107,203.652,42.778,125.058,35.324z"/>
<path style="fill:#8CD76E;" d="M263.436,193.69c0.296,0.028,0.592,0.045,0.883,0.045c2.462,0,4.837-0.974,6.591-2.73L117.791,37.887
	c-0.058,0.056-0.143,0.069-0.201,0.127c-1.966,1.966-2.954,4.706-2.689,7.473C122.378,123.903,184.848,186.235,263.436,193.69z"/>
<g>
	<path style="fill:#73BE73;" d="M273.641,202.557c-2.258,0-4.515-0.861-6.238-2.584l-96.867-96.868
		c-3.446-3.446-3.446-9.03,0-12.475c3.446-3.444,9.031-3.442,12.474,0l96.867,96.868c3.446,3.446,3.446,9.03,0,12.475
		C278.157,201.695,275.898,202.557,273.641,202.557z"/>
	<path style="fill:#73BE73;" d="M238.356,202.557c-2.257,0-4.515-0.861-6.238-2.584c-3.446-3.445-3.446-9.03,0-12.475l79.225-79.226
		c3.445-3.444,9.03-3.444,12.474,0c3.446,3.445,3.446,9.03,0,12.475l-79.225,79.226
		C242.872,201.695,240.613,202.557,238.356,202.557z"/>
	<path style="fill:#73BE73;" d="M255.999,149.962c-4.872,0-8.821-3.95-8.821-8.821c0-26.958,10.841-59.676,28.999-87.518
		c19.155-29.373,43.323-48.854,66.305-53.451c4.78-0.95,9.424,2.144,10.38,6.919c0.955,4.778-2.142,9.425-6.92,10.38
		c-18.092,3.618-38.648,20.735-54.987,45.788c-16.363,25.092-26.134,54.205-26.134,77.88
		C264.82,146.012,260.87,149.962,255.999,149.962z"/>
</g>
<g>
	<path style="fill:#A07DD2;" d="M388.317,194.069c-0.882,0-1.743,0.097-2.612,0.159c1.661-5.571,2.612-11.545,2.612-17.801
		c0-29.231-19.747-52.927-44.106-52.927c-24.359,0-44.106,23.696-44.106,52.927c0-29.231-19.747-52.927-44.106-52.927
		s-44.106,23.696-44.106,52.927c0-29.231-19.747-52.927-44.106-52.927s-44.106,23.696-44.106,52.927
		c0,6.255,0.952,12.231,2.612,17.801c-0.869-0.062-1.73-0.159-2.612-0.159c-24.359,0-44.106,23.696-44.106,52.927
		s19.747,52.927,44.106,52.927c0.882,0,1.743-0.097,2.612-0.159c-1.661,5.571-2.612,11.545-2.612,17.801
		c0,29.231,19.747,52.927,44.106,52.927c0.882,0,1.743-0.097,2.612-0.159c-1.661,5.571-2.612,11.545-2.612,17.801
		c0,29.231,19.747,52.927,44.106,52.927c0.92,0,1.819-0.098,2.726-0.165c-1.732,5.675-2.726,11.779-2.726,18.175
		c0,29.231,19.747,52.927,44.106,52.927s44.106-23.696,44.106-52.927c0-6.396-0.993-12.499-2.726-18.175
		c0.906,0.067,1.806,0.165,2.726,0.165c24.359,0,44.106-23.696,44.106-52.927c0-6.255-0.952-12.231-2.612-17.801
		c0.869,0.062,1.73,0.159,2.612,0.159c24.359,0,44.106-23.696,44.106-52.927c0-6.255-0.952-12.231-2.612-17.801
		c0.869,0.062,1.73,0.159,2.612,0.159c24.359,0,44.106-23.696,44.106-52.927S412.676,194.069,388.317,194.069z"/>
	<ellipse style="fill:#A07DD2;" cx="256.002" cy="459.069" rx="44.106" ry="52.927"/>
</g>
<path style="fill:#9169C8;" d="M238.356,450.619c0-18.572,7.988-34.883,20.048-44.328c-0.802-0.052-1.593-0.146-2.406-0.146
	c-24.359,0-44.106,23.696-44.106,52.927s19.747,52.927,44.106,52.927c8.883,0,17.135-3.179,24.058-8.6
	C256.823,501.892,238.356,478.875,238.356,450.619z"/>
<ellipse style="fill:#A07DD2;" cx="300.108" cy="388.499" rx="44.106" ry="52.927"/>
<path style="fill:#9169C8;" d="M282.462,380.049c0-18.572,7.988-34.882,20.048-44.328c-0.802-0.052-1.593-0.146-2.406-0.146
	c-24.359,0-44.106,23.696-44.106,52.927s19.747,52.927,44.106,52.927c8.883,0,17.135-3.179,24.058-8.6
	C300.93,431.323,282.462,408.305,282.462,380.049z"/>
<ellipse style="fill:#A07DD2;" cx="211.896" cy="388.499" rx="44.106" ry="52.927"/>
<path style="fill:#9169C8;" d="M194.25,380.049c0-18.572,7.988-34.882,20.048-44.328c-0.802-0.052-1.593-0.146-2.406-0.146
	c-24.359,0-44.106,23.696-44.106,52.927s19.747,52.927,44.106,52.927c8.883,0,17.135-3.179,24.058-8.6
	C212.717,431.323,194.25,408.305,194.25,380.049z"/>
<ellipse style="fill:#A07DD2;" cx="256.002" cy="318.083" rx="44.106" ry="52.927"/>
<path style="fill:#9169C8;" d="M238.356,309.625c0-18.572,7.988-34.882,20.048-44.328c-0.802-0.052-1.593-0.146-2.406-0.146
	c-24.359,0-44.106,23.696-44.106,52.927s19.747,52.927,44.106,52.927c8.883,0,17.135-3.179,24.058-8.6
	C256.823,360.898,238.356,337.88,238.356,309.625z"/>
<ellipse style="fill:#A07DD2;" cx="344.214" cy="318.083" rx="44.106" ry="52.927"/>
<path style="fill:#9169C8;" d="M326.569,309.625c0-18.572,7.988-34.882,20.048-44.328c-0.802-0.052-1.593-0.146-2.406-0.146
	c-24.359,0-44.106,23.696-44.106,52.927s19.747,52.927,44.106,52.927c8.883,0,17.135-3.179,24.058-8.6
	C345.036,360.898,326.569,337.88,326.569,309.625z"/>
<ellipse style="fill:#A07DD2;" cx="167.79" cy="318.083" rx="44.106" ry="52.927"/>
<path style="fill:#9169C8;" d="M150.144,309.625c0-18.572,7.988-34.882,20.048-44.328c-0.802-0.052-1.593-0.146-2.406-0.146
	c-24.359,0-44.106,23.696-44.106,52.927s19.747,52.927,44.106,52.927c8.883,0,17.135-3.179,24.058-8.6
	C168.611,360.898,150.144,337.88,150.144,309.625z"/>
<ellipse style="fill:#A07DD2;" cx="300.108" cy="247.359" rx="44.106" ry="52.927"/>
<path style="fill:#9169C8;" d="M282.462,238.91c0-18.572,7.988-34.882,20.048-44.328c-0.802-0.052-1.593-0.146-2.406-0.146
	c-24.359,0-44.106,23.696-44.106,52.927s19.747,52.927,44.106,52.927c8.883,0,17.135-3.179,24.058-8.6
	C300.93,290.183,282.462,267.165,282.462,238.91z"/>
<ellipse style="fill:#A07DD2;" cx="388.321" cy="247.359" rx="44.106" ry="52.927"/>
<path style="fill:#9169C8;" d="M370.675,238.91c0-18.572,7.988-34.882,20.048-44.328c-0.802-0.052-1.593-0.146-2.406-0.146
	c-24.359,0-44.106,23.696-44.106,52.927s19.747,52.927,44.106,52.927c8.883,0,17.135-3.179,24.058-8.6
	C389.142,290.183,370.675,267.165,370.675,238.91z"/>
<ellipse style="fill:#A07DD2;" cx="123.683" cy="247.359" rx="44.106" ry="52.927"/>
<path style="fill:#9169C8;" d="M106.038,238.91c0-18.572,7.988-34.882,20.048-44.328c-0.802-0.052-1.593-0.146-2.406-0.146
	c-24.359,0-44.106,23.696-44.106,52.927s19.747,52.927,44.106,52.927c8.883,0,17.135-3.179,24.058-8.6
	C124.505,290.183,106.038,267.165,106.038,238.91z"/>
<ellipse style="fill:#A07DD2;" cx="211.896" cy="247.359" rx="44.106" ry="52.927"/>
<path style="fill:#9169C8;" d="M194.25,238.91c0-18.572,7.988-34.882,20.048-44.328c-0.802-0.052-1.593-0.146-2.406-0.146
	c-24.359,0-44.106,23.696-44.106,52.927s19.747,52.927,44.106,52.927c8.883,0,17.135-3.179,24.058-8.6
	C212.717,290.183,194.25,267.165,194.25,238.91z"/>
<ellipse style="fill:#A07DD2;" cx="256.002" cy="176.425" rx="44.106" ry="52.927"/>
<path style="fill:#9169C8;" d="M238.356,167.972c0-18.572,7.988-34.882,20.048-44.328c-0.802-0.052-1.593-0.146-2.406-0.146
	c-24.359,0-44.106,23.696-44.106,52.927s19.747,52.927,44.106,52.927c8.883,0,17.135-3.179,24.058-8.6
	C256.823,219.246,238.356,196.228,238.356,167.972z"/>
<ellipse style="fill:#A07DD2;" cx="344.214" cy="176.425" rx="44.106" ry="52.927"/>
<path style="fill:#9169C8;" d="M326.569,167.972c0-18.572,7.988-34.882,20.048-44.328c-0.802-0.052-1.593-0.146-2.406-0.146
	c-24.359,0-44.106,23.696-44.106,52.927s19.747,52.927,44.106,52.927c8.883,0,17.135-3.179,24.058-8.6
	C345.036,219.246,326.569,196.228,326.569,167.972z"/>
<ellipse style="fill:#A07DD2;" cx="167.79" cy="176.425" rx="44.106" ry="52.927"/>
<path style="fill:#9169C8;" d="M150.144,167.972c0-18.572,7.988-34.882,20.048-44.328c-0.802-0.052-1.593-0.146-2.406-0.146
	c-24.359,0-44.106,23.696-44.106,52.927s19.747,52.927,44.106,52.927c8.883,0,17.135-3.179,24.058-8.6
	C168.611,219.246,150.144,196.228,150.144,167.972z"/>
</svg>