<?xml version="1.0" encoding="iso-8859-1"?>
<!-- Uploaded to: SVG Repo, www.svgrepo.com, Generator: SVG Repo Mixer Tools -->
<svg height="800px" width="800px" version="1.1" id="Layer_1" xmlns="http://www.w3.org/2000/svg" xmlns:xlink="http://www.w3.org/1999/xlink" 
	 viewBox="0 0 512 512" xml:space="preserve">
<path style="fill:#A5EB78;" d="M456.892,287.039l-163.284-31.041l163.318-31.049c12.201-3.258,23.733-9.674,33.304-19.245
	c29.024-29.024,29.024-76.082,0-105.106c-15.717-15.718-36.721-22.848-57.287-21.542c1.305-20.566-5.825-41.57-21.543-57.288
	c-29.024-29.024-76.082-29.024-105.106,0c-9.58,9.581-15.998,21.126-19.254,33.338L256,218.393L224.951,55.075
	c-3.258-12.201-9.674-23.733-19.245-33.304c-29.024-29.024-76.082-29.024-105.106,0C84.884,37.488,77.752,58.491,79.059,79.058
	C58.493,77.752,37.49,84.882,21.772,100.6c-29.024,29.024-29.024,76.082,0,105.106c9.58,9.58,21.126,15.998,33.338,19.254
	l163.284,31.041L55.075,287.049c-12.201,3.258-23.733,9.674-33.304,19.245c-29.024,29.024-29.024,76.082,0,105.106
	c15.718,15.717,36.721,22.848,57.287,21.542c-1.306,20.566,5.824,41.57,21.542,57.288c29.024,29.024,76.082,29.024,105.106,0
	c9.58-9.581,15.998-21.126,19.254-33.339L256,293.607l31.049,163.318c3.258,12.201,9.674,23.733,19.245,33.304
	c29.024,29.024,76.082,29.024,105.106,0c15.718-15.717,22.848-36.721,21.543-57.287c20.566,1.305,41.569-5.825,57.287-21.543
	c29.024-29.024,29.024-76.082,0-105.106C480.65,296.713,469.105,290.296,456.892,287.039z"/>
<path style="fill:#8CD76E;" d="M497.379,108.851c-16.1-21.457-40.563-31.309-64.437-29.793L292.717,219.283
	c-5.959,5.959-14.93,7.676-22.666,4.335c-0.63-0.271-1.269-0.526-1.918-0.761c-7.223-2.625-12.872-8.346-14.307-15.896
	L224.951,55.075c-4.188-15.677-13.587-30.252-28.196-40.979c-25.888-19.008-62.214-18.751-87.903,0.525
	c-21.457,16.1-31.309,40.563-29.793,64.437l140.225,140.225c5.959,5.959,7.676,14.929,4.337,22.666
	c-0.271,0.63-0.526,1.269-0.761,1.918c-2.625,7.223-8.346,12.872-15.896,14.307L55.075,287.049
	c-15.672,4.185-30.241,13.58-40.969,28.182c-19.014,25.88-18.766,62.202,0.499,87.895c16.099,21.472,40.57,31.331,64.454,29.815
	l140.225-140.225c5.959-5.959,14.929-7.676,22.665-4.337c0.63,0.271,1.269,0.526,1.918,0.761
	c7.223,2.625,12.872,8.346,14.307,15.896l28.876,151.886c4.185,15.672,13.58,30.241,28.182,40.969
	c25.88,19.013,62.202,18.766,87.895-0.499c21.472-16.099,31.331-40.57,29.815-64.454L292.717,292.717
	c-5.959-5.959-7.676-14.93-4.335-22.666c0.271-0.63,0.526-1.269,0.761-1.918c2.625-7.223,8.346-12.872,15.896-14.307l151.886-28.876
	c15.677-4.188,30.252-13.587,40.979-28.196C516.913,170.866,516.655,134.54,497.379,108.851z"/>
</svg>